<svg height="812" width="375" xmlns="http://www.w3.org/2000/svg" xmlns:xlink="http://www.w3.org/1999/xlink"><clipPath id="a"><path d="m0 0h375v306h-375z"/></clipPath><path d="m0 0h375v812h-375z" fill="#00004c"/><g clip-path="url(#a)" fill-rule="evenodd"><path d="m2681.793-1660.125c-35.212 0-63.131 30.47-60.006 66.822 2.5 27.947 24.169 50.852 51.881 54.424 36.67 4.833 67.924-23.955 67.924-60.1 0-33.831-26.878-61.148-59.8-61.148zm0-50.852c-61.048 0-110.428 50.011-110.428 112 0 61.57 49.38 111.581 110.428 111.581 60.631 0 110.011-50.011 110.011-111.581 0-61.988-49.38-112-110.011-112z" fill="#02d1a0" opacity=".3" transform="translate(-2344.585 1624.612)"/><path d="m3282.505-1723.48a16.527 16.527 0 0 1 -16.337-16.636 16.545 16.545 0 0 1 16.337-16.716 16.576 16.576 0 0 1 16.495 16.716 16.558 16.558 0 0 1 -16.495 16.636zm0-52.455a34.848 34.848 0 0 0 -12.549 2.388 2.774 2.774 0 0 1 -3.788-2.547v-16.318a2.709 2.709 0 0 0 -2.763-2.786h-13.259a2.692 2.692 0 0 0 -2.683 2.786v52.3c0 19.74 15.627 35.739 35.042 35.739a35.387 35.387 0 0 0 35.2-35.739c0-19.82-15.627-35.819-35.2-35.819z" fill="#ff0068" opacity=".3" transform="translate(-3071.621 1911.209)"/><path d="m3162.64-1473.969c-33.356 0-60.865 27.744-60.865 62.078s27.509 61.731 60.865 61.731c33.7 0 60.865-27.4 60.865-61.731s-27.165-62.078-60.865-62.078zm0-61.384c-67.055 0-121.387 55.488-121.387 123.462s54.332 123.114 121.387 123.114 121.729-55.141 121.729-123.114-54.676-123.462-121.729-123.462z" fill="#ff6700" opacity=".3" transform="translate(-3130.812 1560.778)"/></g></svg>