<svg xmlns="http://www.w3.org/2000/svg" width="105.276" height="31.907">
    <defs>
        <style>
            .cls-3{fill:#6200e2}
        </style>
    </defs>
    <g id="Group_2542" data-name="Group 2542" transform="translate(0 -10.634)">
        <g id="Group_2042" data-name="Group 2042" transform="translate(0 14.404)">
            <g id="Group_2032" data-name="Group 2032">
                <g id="Group_2023" data-name="Group 2023" transform="translate(16.181 2.779)">
                    <path id="Path_2017" data-name="Path 2017" d="M456.295 209.245a4.946 4.946 0 0 0-.66 9.839 4.937 4.937 0 1 0 .66-9.839zm0-4.127a9.073 9.073 0 1 0 8.927 9.089 9.016 9.016 0 0 0-8.927-9.089z" transform="translate(-447.333 -205.118)" style="fill-rule:evenodd;fill:#02d1a0"/>
                </g>
                <g id="Group_2024" data-name="Group 2024" transform="translate(35.203 7.315)">
                    <path id="Path_2018" data-name="Path 2018" d="M517.462 223.436a3.044 3.044 0 1 0 2.993 3.052 3.03 3.03 0 0 0-2.993-3.052zm0-3.018a6.063 6.063 0 1 0 5.985 6.071 6.027 6.027 0 0 0-5.985-6.071z" transform="translate(-511.493 -220.418)" style="fill:#ff6700;fill-rule:evenodd"/>
                </g>
                <g id="Group_2025" data-name="Group 2025" transform="translate(26.232 23.619)">
                    <path id="Path_2019" data-name="Path 2019" class="cls-3" d="M496.833 277.027a.757.757 0 0 1-.3 1.057 16.361 16.361 0 0 1-3.229 1.279 16.094 16.094 0 0 1-8.437 0 16.784 16.784 0 0 1-3.229-1.279.785.785 0 0 1-.3-1.057l.693-1.228a.747.747 0 0 1 1-.307 13.071 13.071 0 0 0 2.6 1.006 13.212 13.212 0 0 0 6.915 0 13.077 13.077 0 0 0 2.6-1.006.743.743 0 0 1 1 .307z" transform="translate(-481.234 -275.408)"/>
                </g>
                <g id="Group_2026" data-name="Group 2026">
                    <path id="Path_2020" data-name="Path 2020" d="M400.261 211.107a3.541 3.541 0 0 1-3.5-3.564 3.517 3.517 0 1 1 3.5 3.564zm0-11.238a7.464 7.464 0 0 0-2.688.512.594.594 0 0 1-.811-.546v-3.5a.58.58 0 0 0-.592-.6h-2.841a.577.577 0 0 0-.575.6v11.2a7.526 7.526 0 1 0 7.507-7.674z" transform="translate(-392.754 -195.743)" style="fill:#ff0068;fill-rule:evenodd"/>
                </g>
                <g id="Group_2027" data-name="Group 2027" transform="translate(48.29 4.178)">
                    <path id="Path_2021" data-name="Path 2021" class="cls-3" d="M571.647 209.835a5.331 5.331 0 0 0-4.937 2.66h-.051a5.365 5.365 0 0 0-4.937-2.66c-4.092 0-6.087 2.8-6.087 6.616v7.691a.855.855 0 0 0 .845.87h1.826c.084 0 1.065.1 1.065-.887l.085-7.64a2.556 2.556 0 0 1 2.468-2.8 2.818 2.818 0 0 1 2.672 2.865v7.537a.88.88 0 0 0 1.031.921h2.114c.795 0 .981-.409.981-.989l.068-7.537a2.767 2.767 0 0 1 2.587-2.8 2.61 2.61 0 0 1 2.553 2.865v7.4c0 .58.169 1.057.947 1.057l2.181-.017c.321 0 .676-.068.676-.7v-7.844c0-3.82-1.995-6.616-6.087-6.616z" transform="translate(-555.635 -209.835)"/>
                </g>
            </g>
        </g>
        <circle id="Ellipse_822" data-name="Ellipse 822" class="cls-3" cx="14.168" cy="14.168" r="14.168" transform="translate(76.941 11.778)"/>
        <text id="_5" data-name="5" transform="translate(84.757 34.634)" style="fill:#fff;font-size:22px;font-family:OpenSans-Bold,Open Sans;font-weight:700"><tspan x="0" y="0">5</tspan></text>
    </g>
</svg>
