<svg xmlns="http://www.w3.org/2000/svg" width="99.352" height="38.809">
    <defs>
        <style>
            .cls-1,.cls-2{fill:#02d1a0;fill-rule:evenodd}.cls-2{fill:#ff6700}.cls-3{fill:#6200e2}
        </style>
    </defs>
    <g id="Group_2246" data-name="Group 2246" transform="translate(-239.324 -390)">
        <g id="Group_2042" data-name="Group 2042" transform="translate(239.324 390)">
            <g id="Group_2032" data-name="Group 2032">
                <g id="Group_2023" data-name="Group 2023" transform="translate(14.795 15.623)">
                    <path id="Path_2017" data-name="Path 2017" class="cls-1" d="M455.527 208.891a4.522 4.522 0 0 0-.6 9 4.514 4.514 0 1 0 .6-9zm0-3.773a8.3 8.3 0 1 0 8.163 8.311 8.244 8.244 0 0 0-8.163-8.311z" transform="translate(-447.333 -205.118)"/>
                </g>
                <g id="Group_2024" data-name="Group 2024" transform="translate(32.188 19.771)">
                    <path id="Path_2018" data-name="Path 2018" class="cls-2" d="M516.951 223.178a2.784 2.784 0 1 0 2.736 2.791 2.771 2.771 0 0 0-2.736-2.791zm0-2.76a5.543 5.543 0 1 0 5.473 5.551 5.51 5.51 0 0 0-5.473-5.551z" transform="translate(-511.493 -220.418)"/>
                </g>
                <g id="Group_2025" data-name="Group 2025" transform="translate(23.985 34.678)">
                    <path id="Path_2019" data-name="Path 2019" class="cls-3" d="M495.5 276.889a.692.692 0 0 1-.278.967 14.959 14.959 0 0 1-2.953 1.169 14.716 14.716 0 0 1-7.715 0 15.345 15.345 0 0 1-2.953-1.169.718.718 0 0 1-.278-.967l.634-1.123a.683.683 0 0 1 .912-.281 11.956 11.956 0 0 0 2.381.92 12.081 12.081 0 0 0 6.323 0 11.961 11.961 0 0 0 2.381-.92.679.679 0 0 1 .912.281z" transform="translate(-481.234 -275.408)"/>
                </g>
                <g id="Group_2026" data-name="Group 2026" transform="translate(0 13.082)">
                    <path id="Path_2020" data-name="Path 2020" d="M399.618 209.791a3.237 3.237 0 0 1-3.2-3.259 3.216 3.216 0 1 1 3.2 3.259zm0-10.275a6.825 6.825 0 0 0-2.458.468.544.544 0 0 1-.742-.5v-3.2a.531.531 0 0 0-.541-.546h-2.6a.527.527 0 0 0-.526.546v10.244a6.881 6.881 0 1 0 6.864-7.016z" transform="translate(-392.754 -195.743)" style="fill:#ff0068;fill-rule:evenodd"/>
                </g>
                <g id="Group_2027" data-name="Group 2027" transform="translate(44.154 16.902)">
                    <path id="Path_2021" data-name="Path 2021" class="cls-3" d="M570.276 209.835a4.875 4.875 0 0 0-4.514 2.432h-.046a4.906 4.906 0 0 0-4.514-2.432c-3.741 0-5.566 2.557-5.566 6.049v7.032a.782.782 0 0 0 .773.8h1.67c.077 0 .974.094.974-.811l.077-6.985a2.337 2.337 0 0 1 2.257-2.557 2.577 2.577 0 0 1 2.443 2.619v6.892a.8.8 0 0 0 .943.842h1.927c.727 0 .9-.374.9-.9l.062-6.892a2.53 2.53 0 0 1 2.366-2.557 2.387 2.387 0 0 1 2.334 2.619v6.767c0 .53.155.967.866.967l1.994-.015c.294 0 .618-.062.618-.639v-7.172c0-3.493-1.824-6.049-5.566-6.049z" transform="translate(-555.635 -209.835)"/>
                </g>
                <g id="Group_2028" data-name="Group 2028" transform="translate(43.598 1.918)">
                    <path id="Path_2022" data-name="Path 2022" d="M563 166.192v-.8a.765.765 0 0 1 .773-.764h.943a.762.762 0 0 1 .758.764v.8a.762.762 0 0 1-.758.764h-.943a.765.765 0 0 1-.773-.764zm6.215-4.21a3.3 3.3 0 0 1-2.721 1.216h-12.155a.762.762 0 0 1-.757-.764v-1.154a.775.775 0 0 1 .757-.779h11.549c.943 0 1.422-.655 1.422-1.965v-3.212a.762.762 0 0 1 .758-.764h1.268a.762.762 0 0 1 .758.764v3.991a4.07 4.07 0 0 1-.881 2.666z" transform="translate(-553.582 -154.56)" style="fill:#ff0068"/>
                </g>
                <g id="Group_2029" data-name="Group 2029" transform="translate(10.497)">
                    <path id="Path_2023" data-name="Path 2023" d="M440.306 153.6a2.807 2.807 0 1 1-5.612 0 2.806 2.806 0 1 1 5.612 0zm3.216 0a6.023 6.023 0 1 0-12.044 0v8.965a.481.481 0 0 0 .479.468h2.273a.467.467 0 0 0 .464-.468v-2.807a.475.475 0 0 1 .649-.437 5.792 5.792 0 0 0 2.149.406 6.064 6.064 0 0 0 6.029-6.128z" transform="translate(-431.478 -147.486)" style="fill:#6200e2;fill-rule:evenodd"/>
                </g>
                <g id="Group_2030" data-name="Group 2030" transform="translate(34.059)">
                    <path id="Path_2024" data-name="Path 2024" class="cls-1" d="M524.423 150.76a2.823 2.823 0 0 1 2.8 2.838 2.806 2.806 0 1 1-2.8-2.838zm0 8.966a5.791 5.791 0 0 0 2.149-.406.475.475 0 0 1 .649.437v2.807a.478.478 0 0 0 .464.468h2.273a.481.481 0 0 0 .479-.468V153.6a6.023 6.023 0 1 0-6.014 6.128z" transform="translate(-518.394 -147.486)"/>
                </g>
                <g id="Group_2031" data-name="Group 2031" transform="translate(23.562 1.933)">
                    <path id="Path_2025" data-name="Path 2025" class="cls-2" d="M484.416 157.191a2.23 2.23 0 0 1 2.2 2.245 2.211 2.211 0 1 1-2.2-2.245zm0 7.063a4.7 4.7 0 0 0 1.685-.327.371.371 0 0 1 .51.343v2.2a.378.378 0 0 0 .371.374h1.778a.368.368 0 0 0 .371-.374v-7.032a4.732 4.732 0 1 0-4.716 4.818z" transform="translate(-479.67 -154.618)"/>
                </g>
            </g>
        </g>
        <circle id="Ellipse_822" data-name="Ellipse 822" class="cls-3" cx="14.5" cy="14.5" r="14.5" transform="translate(309.676 392)"/>
        <path id="Union_1" data-name="Union 1" d="M-3910.334 20629.564v-3.164a6.894 6.894 0 0 0 3.666 1.057 3.445 3.445 0 0 0 2.294-.7 2.343 2.343 0 0 0 .823-1.889c0-1.668-1.175-2.5-3.526-2.5a25.667 25.667 0 0 0-3 .2l.637-9.377h8.9v3.023h-6.073l-.233 3.365c.6-.047 1.118-.072 1.558-.072a5.737 5.737 0 0 1 4.054 1.361 4.738 4.738 0 0 1 1.465 3.656 5.382 5.382 0 0 1-1.745 4.152 6.71 6.71 0 0 1-4.738 1.615 10.07 10.07 0 0 1-4.082-.727z" transform="translate(4229.676 -20215)" style="fill:#fff;stroke:transparent;stroke-miterlimit:10"/>
    </g>
</svg>
