<svg height="812" width="375" xmlns="http://www.w3.org/2000/svg" xmlns:xlink="http://www.w3.org/1999/xlink"><clipPath id="a"><path d="m0 0h375v812h-375z"/></clipPath><g clip-path="url(#a)"><path d="m0 0h375v812h-375z" fill="#00004c"/><path d="m471.793 216.381a13.5 13.5 0 0 0 -1.8 26.856 13.475 13.475 0 1 0 1.8-26.856zm0-11.263a24.765 24.765 0 1 0 24.367 24.808 24.608 24.608 0 0 0 -24.367-24.808z" fill="#02d1a0" fill-rule="evenodd" transform="translate(-311.518 224.174)"/><path d="m527.784 228.656a8.309 8.309 0 1 0 8.168 8.332 8.27 8.27 0 0 0 -8.168-8.332zm0-8.238a16.548 16.548 0 1 0 16.337 16.569 16.449 16.449 0 0 0 -16.337-16.569z" fill="#ff6700" fill-rule="evenodd" transform="translate(-323.759 221.255)"/><path d="m523.811 279.827a2.066 2.066 0 0 1 -.83 2.886 44.656 44.656 0 0 1 -8.815 3.491 43.931 43.931 0 0 1 -23.029 0 45.8 45.8 0 0 1 -8.815-3.491 2.143 2.143 0 0 1 -.83-2.886l1.892-3.352a2.04 2.04 0 0 1 2.723-.838 35.686 35.686 0 0 0 7.107 2.746 36.064 36.064 0 0 0 18.875 0 35.7 35.7 0 0 0 7.107-2.746 2.028 2.028 0 0 1 2.723.838z" fill="#6200e2" transform="translate(-317.986 210.764)"/><path d="m413.245 237.679a9.664 9.664 0 0 1 -9.553-9.728 9.6 9.6 0 1 1 9.553 9.728zm0-30.672a20.372 20.372 0 0 0 -7.338 1.4 1.623 1.623 0 0 1 -2.215-1.49v-9.541a1.584 1.584 0 0 0 -1.615-1.629h-7.754a1.574 1.574 0 0 0 -1.569 1.629v30.579a20.541 20.541 0 1 0 20.491-20.945z" fill="#ff0068" fill-rule="evenodd" transform="translate(-301.105 225.963)"/><path d="m599.339 209.835c-5.63 0-10.661 2.187-13.476 7.26h-.138c-3-5.073-7.753-7.26-13.476-7.26-11.168 0-16.614 7.632-16.614 18.058v20.992a2.335 2.335 0 0 0 2.307 2.373h4.985c.231 0 2.908.279 2.908-2.42l.231-20.852c0-4.933 3.369-7.679 6.737-7.632a7.692 7.692 0 0 1 7.292 7.819v20.573a2.4 2.4 0 0 0 2.815 2.513h5.769c2.169 0 2.677-1.117 2.677-2.7l.185-20.573a7.553 7.553 0 0 1 7.061-7.632c3.507-.093 6.968 2.746 6.968 7.819v20.2c0 1.583.462 2.886 2.585 2.886l5.953-.046c.877 0 1.846-.186 1.846-1.909v-21.41c0-10.426-5.445-18.058-16.614-18.058z" fill="#6200e2" transform="translate(-332.181 223.274)"/><path d="m581.688 189.282v-2.373a2.284 2.284 0 0 1 2.307-2.28h2.815a2.275 2.275 0 0 1 2.262 2.28v2.373a2.275 2.275 0 0 1 -2.262 2.281h-2.815a2.285 2.285 0 0 1 -2.307-2.281zm18.552-12.566a9.84 9.84 0 0 1 -8.122 3.63h-36.275a2.275 2.275 0 0 1 -2.261-2.28v-3.446a2.315 2.315 0 0 1 2.261-2.326h34.474c2.815 0 4.246-1.955 4.246-5.865v-9.588a2.275 2.275 0 0 1 2.262-2.281h3.784a2.275 2.275 0 0 1 2.262 2.281v11.915a12.15 12.15 0 0 1 -2.631 7.959z" fill="#ff0068" transform="translate(-331.789 233.82)"/><path d="m457.83 165.731a8.378 8.378 0 1 1 -16.752 0 8.377 8.377 0 1 1 16.752 0zm9.6 0a17.978 17.978 0 1 0 -35.952 0v26.762a1.436 1.436 0 0 0 1.431 1.4h6.784a1.4 1.4 0 0 0 1.385-1.4v-8.378a1.419 1.419 0 0 1 1.938-1.3 17.29 17.29 0 0 0 6.415 1.211 18.1 18.1 0 0 0 18-18.291z" fill="#6200e2" fill-rule="evenodd" transform="translate(-308.493 235.17)"/><path d="m536.392 157.26a8.427 8.427 0 0 1 8.353 8.472 8.377 8.377 0 1 1 -8.353-8.472zm0 26.763a17.286 17.286 0 0 0 6.415-1.211 1.419 1.419 0 0 1 1.938 1.3v8.378a1.426 1.426 0 0 0 1.385 1.4h6.784a1.436 1.436 0 0 0 1.431-1.4v-26.759a17.978 17.978 0 1 0 -17.952 18.291z" fill="#02d1a0" fill-rule="evenodd" transform="translate(-325.076 235.17)"/><path d="m493.838 162.3a6.658 6.658 0 0 1 6.554 6.7 6.6 6.6 0 1 1 -6.554-6.7zm0 21.085a14.028 14.028 0 0 0 5.031-.978 1.107 1.107 0 0 1 1.523 1.024v6.563a1.128 1.128 0 0 0 1.107 1.118h5.308a1.1 1.1 0 0 0 1.108-1.118v-20.994a14.124 14.124 0 1 0 -14.076 14.382z" fill="#ff6700" fill-rule="evenodd" transform="translate(-317.688 233.809)"/><path d="m3028.19-1547.283a8.775 8.775 0 0 1 -3.525 12.117 199.89 199.89 0 0 1 -37.4 14.764 191.559 191.559 0 0 1 -48.97 6.291 191.054 191.054 0 0 1 -48.709-6.291 199.835 199.835 0 0 1 -37.4-14.764 8.775 8.775 0 0 1 -3.525-12.117l8-14.08a8.786 8.786 0 0 1 11.6-3.539 145.705 145.705 0 0 0 30.187 11.469 155.374 155.374 0 0 0 39.852 5.242 157.376 157.376 0 0 0 40.113-5.242 151.466 151.466 0 0 0 30.2-11.49 8.782 8.782 0 0 1 11.578 3.549z" fill="#6200e2" transform="translate(-2750.924 2131.117)"/><g fill-rule="evenodd"><path d="m2724.911-1640.269c-48.961 0-87.782 42.367-83.437 92.915 3.478 38.86 33.606 70.707 72.139 75.675 50.989 6.72 94.446-33.308 94.446-83.564 0-47.041-37.373-85.025-83.147-85.025zm0-70.707c-84.885 0-153.546 69.539-153.546 155.732 0 85.61 68.661 155.15 153.546 155.15 84.306 0 152.967-69.539 152.967-155.15 0-86.193-68.661-155.732-152.967-155.732z" fill="#02d1a0" transform="translate(-2667.365 1605.383)"/><path d="m3178.984-1465.7c-37.847 0-69.06 31.48-69.06 70.436s31.213 70.042 69.06 70.042c38.236 0 69.059-31.086 69.059-70.042s-30.823-70.436-69.059-70.436zm0-69.649c-76.084 0-137.73 62.959-137.73 140.085s61.647 139.69 137.73 139.69 138.119-62.566 138.119-139.69-62.037-140.085-138.119-140.085z" fill="#ff6700" transform="translate(-2804.178 2200.252)"/><path d="m3318.675-1649.456c-18.284 0-33.2-15.205-33.2-33.807 0-18.763 14.915-33.969 33.2-33.969a33.686 33.686 0 0 1 33.521 33.969 33.65 33.65 0 0 1 -33.521 33.807zm0-106.6a70.811 70.811 0 0 0 -25.5 4.853 5.638 5.638 0 0 1 -7.7-5.176v-33.16a5.505 5.505 0 0 0 -5.614-5.661h-26.945a5.471 5.471 0 0 0 -5.454 5.661v106.273c0 40.115 31.757 72.628 71.212 72.628 39.777 0 71.533-32.513 71.533-72.628 0-40.277-31.756-72.79-71.533-72.79z" fill="#ff0068" transform="translate(-2959.313 1960.398)"/><path d="m3318.675-1649.456c-18.284 0-33.2-15.205-33.2-33.807 0-18.763 14.915-33.969 33.2-33.969a33.686 33.686 0 0 1 33.521 33.969 33.65 33.65 0 0 1 -33.521 33.807zm0-106.6a70.811 70.811 0 0 0 -25.5 4.853 5.638 5.638 0 0 1 -7.7-5.176v-33.16a5.505 5.505 0 0 0 -5.614-5.661h-26.945a5.471 5.471 0 0 0 -5.454 5.661v106.273c0 40.115 31.757 72.628 71.212 72.628 39.777 0 71.533-32.513 71.533-72.628 0-40.277-31.756-72.79-71.533-72.79z" fill="#ff0068" transform="translate(-3305.835 2367.814)"/></g><path d="m3085.665-1807.117c-10.7 0-20.266 4.158-25.618 13.8h-.263c-5.7-9.645-14.739-13.8-25.618-13.8-21.23 0-31.583 14.511-31.583 34.33v39.9a4.439 4.439 0 0 0 4.387 4.513h9.475c.438 0 5.527.531 5.527-4.6l.439-39.639c0-9.379 6.4-14.6 12.808-14.511 6.843.089 13.862 6.1 13.862 14.865v39.108c0 5.309 5 4.778 5.351 4.778h10.968c4.123 0 5.088-2.124 5.088-5.132l.351-39.108c.088-8.494 6.755-14.334 13.423-14.511s13.247 5.221 13.247 14.865v38.4c0 3.008.878 5.486 4.913 5.486l11.318-.089c1.667 0 3.509-.354 3.509-3.627v-40.7c0-19.819-10.352-34.33-31.583-34.33z" fill="#6200e2" transform="translate(-3036.583 2078.117)"/></g></svg>